HIERARCHY
ROOT RootJoint
{
    OFFSET   0.000000   0.000000   0.000000
    CHANNELS 6 Xposition Yposition Zposition Xrotation Yrotation Zrotation
    JOINT pelvis_lowerback
    {
        OFFSET   0.000000   0.093605   0.000000
        CHANNELS 3 Xrotation Yrotation Zrotation
        JOINT lowerback_torso
        {
            OFFSET   0.000000   0.100000   0.000000
            CHANNELS 3 Xrotation Yrotation Zrotation
            JOINT torso_head
            {
                OFFSET   0.000000   0.282350   0.000000
                CHANNELS 3 Xrotation Yrotation Zrotation
                End Site
                {
                    OFFSET   0.000000   0.192650   0.000000
                }
            }
            JOINT rTorso_Clavicle
            {
                OFFSET  -0.001000   0.157500   0.000000
                CHANNELS 3 Xrotation Yrotation Zrotation
                JOINT rShoulder
                {
                    OFFSET  -0.117647   0.000000   0.000000
                    CHANNELS 3 Xrotation Yrotation Zrotation
                    JOINT rElbow
                    {
                        OFFSET  -0.245000   0.000000   0.000000
                        CHANNELS 3 Xrotation Yrotation Zrotation
                        JOINT rWrist
                        {
                            OFFSET  -0.240000   0.000000   0.000000
                            CHANNELS 3 Xrotation Yrotation Zrotation
                            End Site
                            {
                                OFFSET  -0.116353  -0.002500   0.000000
                            }
                        }
                    }
                }
            }
            JOINT lTorso_Clavicle
            {
                OFFSET   0.001000   0.157500   0.000000
                CHANNELS 3 Xrotation Yrotation Zrotation
                JOINT lShoulder
                {
                    OFFSET   0.117647   0.000000   0.000000
                    CHANNELS 3 Xrotation Yrotation Zrotation
                    JOINT lElbow
                    {
                        OFFSET   0.245000   0.000000   0.000000
                        CHANNELS 3 Xrotation Yrotation Zrotation
                        JOINT lWrist
                        {
                            OFFSET   0.240000   0.000000   0.000000
                            CHANNELS 3 Xrotation Yrotation Zrotation
                            End Site
                            {
                                OFFSET   0.116353  -0.002500   0.000000
                            }
                        }
                    }
                }
            }
        }
    }
    JOINT rHip
    {
        OFFSET  -0.100000  -0.051395   0.000000
        CHANNELS 3 Xrotation Yrotation Zrotation
        JOINT rKnee
        {
            OFFSET   0.000000  -0.410000   0.000000
            CHANNELS 3 Xrotation Yrotation Zrotation
            JOINT rAnkle
            {
                OFFSET   0.000000  -0.390000   0.000000
                CHANNELS 3 Xrotation Yrotation Zrotation
                JOINT rToeJoint
                {
                    OFFSET   0.000000  -0.050000   0.130000
                    CHANNELS 3 Xrotation Yrotation Zrotation
                    End Site
                    {
                        OFFSET  -0.010000   0.002000   0.060000
                    }
                }
            }
        }
    }
    JOINT lHip
    {
        OFFSET   0.100000  -0.051395   0.000000
        CHANNELS 3 Xrotation Yrotation Zrotation
        JOINT lKnee
        {
            OFFSET   0.000000  -0.410000   0.000000
            CHANNELS 3 Xrotation Yrotation Zrotation
            JOINT lAnkle
            {
                OFFSET   0.000000  -0.390000   0.000000
                CHANNELS 3 Xrotation Yrotation Zrotation
                JOINT lToeJoint
                {
                    OFFSET   0.000000  -0.050000   0.130000
                    CHANNELS 3 Xrotation Yrotation Zrotation
                    End Site
                    {
                        OFFSET   0.010000   0.002000   0.060000
                    }
                }
            }
        }
    }
}
MOTION
Frames: 7
Frame Time:   0.008333
 -2.236131   0.738462   3.927324 -11.134605 -16.352457  -4.378151  30.952444  -1.034329  -1.373262  -1.286424  -0.900481  -0.030681  -8.580628   0.794785  -0.528968   0.821339   9.848920   5.239504   5.406313  15.177597  40.923814  -0.062846  80.418982   0.059673   8.430424   2.769899 -19.883497  -1.119980 -11.531761  -6.867593  -0.955575  -7.920518 -41.960253  -0.070179 -85.805613  -0.056803   1.409182  -5.916756  22.474313 -30.418670  -3.883509  -4.233297  81.332100  -0.000246   0.000121 -34.479457  -7.475009  -5.102876  -8.913365   0.001091  -0.000263 -24.904421   0.679595  17.661043  75.940403  -0.000636  -0.000344 -40.756618  10.364281   8.379092  -1.037005  -0.002092  -0.002965
 -2.235258   0.739355   3.926451 -11.172959 -16.491930  -4.374672  30.972324  -0.971984  -1.422169  -1.224271  -0.856356  -0.076192  -8.680453   0.839624  -0.481359   0.829617   9.980279   5.419868   5.462915  15.302328  40.866860  -0.053706  79.991791   0.050750   8.559657   2.754442 -20.116549  -1.031739 -11.381362  -7.090758  -0.640130  -7.789604 -41.921746  -0.057716 -85.346625  -0.045920   1.555478  -5.882123  22.754373 -30.308722  -3.821385  -4.245164  80.998598  -0.000055   0.000344 -34.584826  -7.457368  -5.141436  -8.361067   0.000952  -0.000751 -24.819272   0.688898  17.478754  75.804671  -0.000416   0.000025 -40.860898  10.177157   8.438074  -0.887140  -0.001561  -0.002884
 -2.234347   0.740517   3.925666 -11.180231 -16.661748  -4.370347  30.950862  -0.906629  -1.468059  -1.176852  -0.807855  -0.120686  -8.774827   0.880748  -0.434343   0.845066  10.098067   5.589380   5.521133  15.421550  40.821036  -0.045568  79.598937   0.042781   8.692556   2.766763 -20.324759  -0.925408 -11.222939  -7.305221  -0.326286  -7.658744 -41.896219  -0.048747 -84.917371  -0.038319   1.698086  -5.851564  23.001589 -30.193431  -3.769099  -4.254341  80.593305   0.000209   0.000664 -34.680908  -7.439695  -5.176598  -7.769424   0.000803  -0.001371 -24.721436   0.709037  17.286756  75.608609  -0.000173   0.000512 -40.963349  10.001078   8.494691  -0.747885  -0.001126  -0.002810
 -2.233397   0.741849   3.924927 -11.165135 -16.849325  -4.367976  30.906015  -0.841228  -1.509006  -1.145559  -0.757728  -0.161379  -8.864312   0.918855  -0.389430   0.861000  10.204480   5.742883   5.576806  15.532385  40.778394  -0.038347  79.235154   0.035740   8.824881   2.792828 -20.523172  -0.817276 -11.066371  -7.503631  -0.026558  -7.532066 -41.875379  -0.041728 -84.516864  -0.032556   1.832909  -5.818408  23.229846 -30.083723  -3.725787  -4.260357  80.147733   0.000499   0.001023 -34.749551  -7.422453  -5.210371  -7.183951   0.000669  -0.001969 -24.620390   0.734222  17.092592  75.375056   0.000067   0.001035 -41.064301   9.836274   8.548954  -0.620795  -0.000779  -0.002714
 -2.232413   0.743281   3.924223 -11.135012 -17.046850  -4.367909  30.845746  -0.778346  -1.545253  -1.128103  -0.708885  -0.197791  -8.948396   0.954272  -0.346776   0.875153  10.301189   5.879932   5.628570  15.634832  40.736401  -0.031978  78.897625   0.029574   8.954861   2.826143 -20.718652  -0.713943 -10.915808  -7.683780   0.254763  -7.411650 -41.855349  -0.035983 -84.144080  -0.027981   1.962299  -5.787247  23.448609 -29.980524  -3.689188  -4.264052  79.679680   0.000777   0.001380 -34.793718  -7.405995  -5.242947  -6.614310   0.000554  -0.002487 -24.519928   0.762736  16.900241  75.119396   0.000281   0.001534 -41.162710   9.682221   8.600460  -0.504928  -0.000504  -0.002594
 -2.231399   0.744760   3.923549 -11.095463 -17.249512  -4.370247  30.774635  -0.719516  -1.577173  -1.122419  -0.663077  -0.230077  -9.027074   0.987208  -0.306449   0.886982  10.389279   6.001742   5.676204  15.729309  40.694433  -0.026399  78.584144   0.024212   9.081789   2.863785 -20.913416  -0.618022 -10.773143  -7.846092   0.516563  -7.298392 -41.834756  -0.031157 -83.797609  -0.024237   2.088140  -5.761588  23.661901 -29.883298  -3.657427  -4.266191  79.201535   0.001021   0.001709 -34.818645  -7.390696  -5.274340  -6.063487   0.000459  -0.002908 -24.421883   0.793923  16.712267  74.852806   0.000458   0.001970 -41.257715   9.538371   8.648944  -0.399228  -0.000291  -0.002453
 -2.230396   0.746068   3.922945 -11.021699 -17.448829  -4.330632  30.659163  -0.672371  -1.630725  -1.138567  -0.626633  -0.268466  -9.098406   1.017326  -0.269114   0.902698  10.461998   6.107491   5.724146  15.814703  40.655761  -0.021493  78.295487   0.019558   9.208135   2.912029 -21.105421  -0.527420 -10.634683  -7.983487   0.761461  -7.191354 -41.811098  -0.026421 -83.477751  -0.020514   2.213858  -5.748828  23.865190 -29.705886  -3.611510  -4.281927  78.565070   0.001283   0.002113 -34.696968  -7.358179  -5.327273  -7.549556  -0.000107  -0.000443 -24.368857   0.836061  16.501013  74.610829   0.000564   0.002231 -41.347953   9.405986   8.690124  -0.304064  -0.000130  -0.002287
